<?xml version="1.0" encoding="UTF-8" standalone="no"?>
<svg
   viewBox="0 0 362.04 83.01"
   version="1.1"
   id="svg1019"
   sodipodi:docname="adoptium-logo-dark.svg"
   width="362.04001"
   height="83.010002"
   inkscape:version="1.2.1 (9c6d41e4, 2022-07-14)"
   xmlns:inkscape="http://www.inkscape.org/namespaces/inkscape"
   xmlns:sodipodi="http://sodipodi.sourceforge.net/DTD/sodipodi-0.dtd"
   xmlns="http://www.w3.org/2000/svg"
   xmlns:svg="http://www.w3.org/2000/svg">
  <sodipodi:namedview
     id="namedview1021"
     pagecolor="#080808"
     bordercolor="#000000"
     borderopacity="0.25"
     inkscape:showpageshadow="true"
     inkscape:pageopacity="0.54901961"
     inkscape:pagecheckerboard="0"
     inkscape:deskcolor="#d1d1d1"
     showgrid="false"
     showborder="true"
     borderlayer="true"
     inkscape:zoom="4.3909274"
     inkscape:cx="173.53965"
     inkscape:cy="34.844575"
     inkscape:window-width="2560"
     inkscape:window-height="1414"
     inkscape:window-x="0"
     inkscape:window-y="26"
     inkscape:window-maximized="0"
     inkscape:current-layer="svg1019" />
  <defs
     id="defs1005">
    <linearGradient
       id="a"
       x1="63.540001"
       y1="65.120003"
       x2="15.36"
       y2="39.73"
       gradientUnits="userSpaceOnUse">
      <stop
         offset="0"
         stop-color="#4e1948"
         id="stop990" />
      <stop
         offset="1"
         stop-color="#1c1537"
         id="stop992" />
    </linearGradient>
    <linearGradient
       id="b"
       x1="32.939999"
       y1="7.96"
       x2="59.470001"
       y2="67.510002"
       gradientUnits="userSpaceOnUse">
      <stop
         offset="0"
         stop-color="#a81255"
         id="stop995" />
      <stop
         offset="1"
         stop-color="#4e1948"
         id="stop997" />
    </linearGradient>
    <linearGradient
       id="c"
       x1="13.24"
       y1="68.480003"
       x2="39.189999"
       y2="8.9300003"
       gradientUnits="userSpaceOnUse">
      <stop
         offset="0"
         stop-color="#e72867"
         id="stop1000" />
      <stop
         offset="1"
         stop-color="#a81255"
         id="stop1002" />
    </linearGradient>
  </defs>
  <g
     id="g2450"
     transform="translate(6.6045273,-71.055603)">
    <g
       data-name="Ebene 2"
       id="g1017"
       transform="translate(-1.6103811,73.755468)">
      <g
         data-name="Ebene 1"
         id="g1015">
        <path
           d="m 119.05,45.11 a 2.35,2.35 0 0 1 -0.87,1.84 3,3 0 0 1 -2,0.76 2.57,2.57 0 0 1 -1.38,-0.39 2.67,2.67 0 0 1 -1,-1.19 l -1.48,-3.33 h -10.67 l -1.51,3.33 a 2.65,2.65 0 0 1 -1,1.19 2.62,2.62 0 0 1 -1.4,0.39 3,3 0 0 1 -2,-0.76 2.3,2.3 0 0 1 -0.91,-1.84 2.81,2.81 0 0 1 0.3,-1.22 L 103.8,26 a 3,3 0 0 1 1.26,-1.36 3.68,3.68 0 0 1 1.86,-0.48 3.73,3.73 0 0 1 1.85,0.48 3,3 0 0 1 1.28,1.36 l 8.7,17.86 a 2.81,2.81 0 0 1 0.3,1.25 z M 103.7,38.26 h 6.59 L 107,30.91 Z m 28.48,8.63 a 2.81,2.81 0 0 1 -0.73,-2.08 V 27.19 a 2.53,2.53 0 0 1 2.8,-2.8 h 6.66 a 14.55,14.55 0 0 1 6.64,1.4 9.87,9.87 0 0 1 4.26,4 12.28,12.28 0 0 1 1.48,6.21 12.58,12.58 0 0 1 -1.46,6.25 9.74,9.74 0 0 1 -4.25,4 14.89,14.89 0 0 1 -6.67,1.38 h -6.66 a 2.8,2.8 0 0 1 -2.07,-0.74 z m 13.39,-5.82 a 6.84,6.84 0 0 0 1.7,-5.09 6.79,6.79 0 0 0 -1.7,-5.07 7,7 0 0 0 -5.09,-1.65 h -3 v 13.48 h 3 a 7,7 0 0 0 5.09,-1.67 z m 25.17,5.37 a 10,10 0 0 1 -4,-4.15 13.38,13.38 0 0 1 -1.45,-6.29 13.41,13.41 0 0 1 1.41,-6.31 9.93,9.93 0 0 1 4,-4.13 13.87,13.87 0 0 1 12.35,0 9.77,9.77 0 0 1 4,4.13 13.41,13.41 0 0 1 1.4,6.31 13.38,13.38 0 0 1 -1.41,6.31 10,10 0 0 1 -4,4.15 13.64,13.64 0 0 1 -12.32,0 z m 10.29,-5 a 8.54,8.54 0 0 0 1.49,-5.44 8.39,8.39 0 0 0 -1.5,-5.4 5.51,5.51 0 0 0 -8.22,0 8.46,8.46 0 0 0 -1.48,5.4 8.52,8.52 0 0 0 1.48,5.44 5.5,5.5 0 0 0 8.23,0 z M 202.81,47 A 3,3 0 0 1 202,44.81 V 27.19 a 2.53,2.53 0 0 1 2.8,-2.8 h 8.43 a 8.55,8.55 0 0 1 6,2 7,7 0 0 1 2.14,5.45 7,7 0 0 1 -2.16,5.43 8.5,8.5 0 0 1 -6,2 h -5.17 v 5.6 a 2.93,2.93 0 0 1 -0.82,2.19 3.06,3.06 0 0 1 -2.24,0.81 A 3,3 0 0 1 202.81,47 Z M 214.9,34 a 2.65,2.65 0 0 0 0.81,-2.14 q 0,-2.86 -3.3,-2.87 h -4.35 v 5.7 h 4.35 A 3.78,3.78 0 0 0 214.9,34 Z m 25.95,13 A 2.87,2.87 0 0 1 240,44.84 V 29.29 h -4.64 a 3.22,3.22 0 0 1 -2.16,-0.61 2.31,2.31 0 0 1 -0.71,-1.86 2.27,2.27 0 0 1 0.71,-1.82 3.28,3.28 0 0 1 2.16,-0.59 h 15.42 a 3.31,3.31 0 0 1 2.16,0.59 2.26,2.26 0 0 1 0.7,1.84 2.31,2.31 0 0 1 -0.7,1.86 3.26,3.26 0 0 1 -2.16,0.61 h -4.65 v 15.5 a 2.86,2.86 0 0 1 -0.84,2.16 3.45,3.45 0 0 1 -4.44,0 z m 26.38,0 a 3,3 0 0 1 -0.8,-2.19 V 27.19 a 2.78,2.78 0 0 1 3,-3 3,3 0 0 1 2.24,0.81 2.89,2.89 0 0 1 0.83,2.16 v 17.65 a 2.93,2.93 0 0 1 -0.83,2.19 3,3 0 0 1 -2.24,0.81 3,3 0 0 1 -2.2,-0.81 z m 22.14,-1.66 c -1.74,-1.71 -2.62,-4.22 -2.62,-7.51 V 27.19 a 3.06,3.06 0 0 1 5.13,-2.19 3,3 0 0 1 0.8,2.16 v 10.9 a 5.91,5.91 0 0 0 1.12,3.85 4.54,4.54 0 0 0 6.46,0 5.85,5.85 0 0 0 1.12,-3.85 V 27.19 a 2.79,2.79 0 0 1 3,-3 3,3 0 0 1 2.17,0.81 2.89,2.89 0 0 1 0.82,2.16 v 10.67 q 0,4.91 -2.65,7.49 -2.65,2.58 -7.72,2.59 -5,0 -7.63,-2.57 z M 344.25,25 a 3,3 0 0 1 0.79,2.15 v 17.96 a 2.67,2.67 0 0 1 -0.72,2 2.85,2.85 0 0 1 -3.81,0 2.64,2.64 0 0 1 -0.74,-2 V 35.42 L 336,42.34 a 4.35,4.35 0 0 1 -1.18,1.5 2.5,2.5 0 0 1 -1.49,0.44 2.47,2.47 0 0 1 -1.48,-0.44 4.24,4.24 0 0 1 -1.18,-1.5 L 327,35.62 v 9.49 a 2.64,2.64 0 0 1 -0.74,2 2.61,2.61 0 0 1 -1.93,0.74 2.57,2.57 0 0 1 -1.89,-0.73 2.64,2.64 0 0 1 -0.74,-2 V 27.19 a 2.94,2.94 0 0 1 0.81,-2.15 2.76,2.76 0 0 1 2.05,-0.82 2.74,2.74 0 0 1 1.62,0.51 4,4 0 0 1 1.22,1.47 l 6.06,11.4 6,-11.4 a 3.08,3.08 0 0 1 2.77,-2 2.74,2.74 0 0 1 2.02,0.8 z M 36.34,0 A 16.62,16.62 0 0 0 21.48,9.1 L 21.41,9.23 21.35,9.36 1.56,52.26 1.41,52.58 1.3,52.91 a 22.11,22.11 0 0 0 -1.3,6.4 16.7,16.7 0 0 0 31.68,7.37 l 17.19,7.73 A 16.5,16.5 0 0 0 56,76 16.72,16.72 0 0 0 72.7,59.3 21.78,21.78 0 0 0 71.4,52.9 L 71.29,52.57 71.15,52.25 C 52,10.81 51.21,9.09 51.05,8.78 A 16.71,16.71 0 0 0 36.34,0 Z"
           fill="#ffffff"
           id="path1007" />
        <path
           d="M 47.09,63.16 36.35,39.85 28.23,57.45 51.81,68.06 a 9.75,9.75 0 0 1 -4.72,-4.9 z"
           fill="url(#a)"
           id="path1009"
           style="fill:url(#a)" />
        <path
           d="M 64.77,55.2 45.32,13 45.14,12.62 45,12.29 44.89,12.1 a 9.66,9.66 0 0 1 0.28,8.62 l -8.82,19.13 10.74,23.31 a 9.7,9.7 0 0 0 18.6,-3.85 9.59,9.59 0 0 0 -0.92,-4.11 z"
           fill="url(#b)"
           id="path1011"
           style="fill:url(#b)" />
        <path
           d="m 36.34,7 a 9.67,9.67 0 0 0 -8.63,5.29 l -0.14,0.32 c -0.06,0.12 -0.13,0.25 -0.18,0.38 L 7.92,55.2 a 9.7028656,9.7028656 0 1 0 17.68,8 L 45.17,20.72 A 9.69,9.69 0 0 0 36.34,7 Z"
           fill="url(#c)"
           id="path1013"
           style="fill:url(#c)" />
      </g>
    </g>
    <g
       id="g572"
       transform="translate(-52.508386,17.113185)"
       style="fill:#ffffff">
	<path
   class="st0"
   d="m 400.2,77.8 c -0.4,-0.2 -0.8,-0.4 -1.1,-0.7 -0.3,-0.3 -0.6,-0.7 -0.7,-1.1 -0.2,-0.4 -0.3,-0.8 -0.3,-1.3 0,-0.6 0.2,-1.2 0.5,-1.7 0.3,-0.5 0.7,-0.9 1.3,-1.2 0.6,-0.3 1.1,-0.4 1.7,-0.4 0.6,0 1.2,0.1 1.7,0.4 0.5,0.3 1,0.7 1.3,1.2 0.3,0.5 0.5,1.1 0.5,1.7 0,0.4 -0.1,0.9 -0.3,1.3 -0.2,0.4 -0.4,0.8 -0.7,1.1 -0.3,0.3 -0.7,0.5 -1.1,0.7 -0.4,0.2 -0.9,0.3 -1.3,0.3 -0.4,0 -1.1,-0.1 -1.5,-0.3 z m 2.8,-0.6 c 0.4,-0.2 0.8,-0.6 1,-1 0.2,-0.4 0.4,-0.9 0.4,-1.4 0,-0.5 -0.1,-1 -0.4,-1.4 -0.2,-0.4 -0.6,-0.7 -1,-1 -0.4,-0.3 -0.9,-0.4 -1.4,-0.4 -0.5,0 -1,0.1 -1.4,0.4 -0.4,0.2 -0.8,0.6 -1,1 -0.2,0.4 -0.4,0.9 -0.4,1.4 0,0.5 0.1,1 0.4,1.4 0.2,0.4 0.6,0.7 1,1 0.4,0.2 0.9,0.4 1.4,0.4 0.5,-0.1 1,-0.2 1.4,-0.4 z m -2.6,-0.6 c -0.1,0 -0.1,-0.1 -0.1,-0.2 v -3 c 0,-0.1 0,-0.2 0.1,-0.3 0.1,-0.1 0.2,-0.1 0.3,-0.1 h 1.2 c 0.5,0 0.9,0.1 1.1,0.2 0.2,0.1 0.3,0.4 0.3,0.8 0,0.2 0,0.3 -0.1,0.4 -0.1,0.1 -0.1,0.2 -0.2,0.3 -0.1,0.1 -0.2,0.1 -0.3,0.2 -0.1,0 -0.3,0.1 -0.4,0.1 l 0.9,1.2 c 0,0 0,0.1 0,0.1 0,0.1 0,0.1 -0.1,0.2 -0.1,0.1 -0.1,0.1 -0.2,0.1 -0.1,0 -0.2,0 -0.2,-0.1 l -1,-1.5 H 401 v 1.4 c 0,0.1 0,0.2 -0.1,0.2 -0.1,0 -0.1,0.1 -0.2,0.1 -0.1,0 -0.3,-0.1 -0.3,-0.1 z m 0.8,-2.1 c 0.1,0 0.1,0 0.2,0 0.1,0 0.1,0 0.2,0 0.1,0 0.1,0 0.2,0 0.1,0 0.1,0 0.1,0 0.1,0 0.2,0 0.3,0 0.1,0 0.1,0 0.2,0 0.1,0 0.1,-0.1 0.2,-0.1 0.1,0 0.1,-0.1 0.1,-0.2 0,-0.1 0,-0.2 0,-0.3 0,-0.2 -0.1,-0.3 -0.2,-0.4 -0.1,-0.1 -0.3,-0.1 -0.6,-0.1 H 401 v 1 c -0.1,0.1 0,0.1 0.2,0.1 z"
   id="path570"
   style="fill:#ffffff" />

</g>
  </g>
</svg>
